<mxfile host="Electron" modified="2023-09-18T08:04:20.049Z" agent="Mozilla/5.0 (Windows NT 10.0; Win64; x64) AppleWebKit/537.36 (KHTML, like Gecko) draw.io/21.7.5 Chrome/114.0.5735.289 Electron/25.8.1 Safari/537.36" etag="53X-c39Ysu5C_63VvEGp" version="21.7.5" type="device">
  <diagram id="C5RBs43oDa-KdzZeNtuy" name="Page-1">
    <mxGraphModel dx="281" dy="613" grid="1" gridSize="10" guides="1" tooltips="1" connect="1" arrows="1" fold="1" page="1" pageScale="1" pageWidth="827" pageHeight="1169" math="0" shadow="0">
      <root>
        <mxCell id="WIyWlLk6GJQsqaUBKTNV-0" />
        <mxCell id="WIyWlLk6GJQsqaUBKTNV-1" parent="WIyWlLk6GJQsqaUBKTNV-0" />
        <mxCell id="WIyWlLk6GJQsqaUBKTNV-2" value="" style="rounded=0;html=1;jettySize=auto;orthogonalLoop=1;fontSize=11;endArrow=block;endFill=0;endSize=8;strokeWidth=1;shadow=0;labelBackgroundColor=none;edgeStyle=orthogonalEdgeStyle;" parent="WIyWlLk6GJQsqaUBKTNV-1" edge="1">
          <mxGeometry relative="1" as="geometry">
            <mxPoint x="339.5" y="170" as="sourcePoint" />
            <mxPoint x="339.5" y="220" as="targetPoint" />
          </mxGeometry>
        </mxCell>
        <mxCell id="Rb-lbBpFjrk857He8v0L-0" value="Mulai" style="ellipse;whiteSpace=wrap;html=1;" vertex="1" parent="WIyWlLk6GJQsqaUBKTNV-1">
          <mxGeometry x="280" y="80" width="120" height="80" as="geometry" />
        </mxCell>
        <mxCell id="Rb-lbBpFjrk857He8v0L-7" value="" style="edgeStyle=orthogonalEdgeStyle;rounded=0;orthogonalLoop=1;jettySize=auto;html=1;" edge="1" parent="WIyWlLk6GJQsqaUBKTNV-1" source="Rb-lbBpFjrk857He8v0L-1" target="Rb-lbBpFjrk857He8v0L-2">
          <mxGeometry relative="1" as="geometry" />
        </mxCell>
        <mxCell id="Rb-lbBpFjrk857He8v0L-1" value="int harga, jumlah, halBuku&lt;br&gt;double Dis, total, bayar, jmlDis&lt;br&gt;String merkBuku" style="shape=hexagon;perimeter=hexagonPerimeter2;whiteSpace=wrap;html=1;fixedSize=1;" vertex="1" parent="WIyWlLk6GJQsqaUBKTNV-1">
          <mxGeometry x="280" y="220" width="120" height="80" as="geometry" />
        </mxCell>
        <mxCell id="Rb-lbBpFjrk857He8v0L-8" value="" style="edgeStyle=orthogonalEdgeStyle;rounded=0;orthogonalLoop=1;jettySize=auto;html=1;" edge="1" parent="WIyWlLk6GJQsqaUBKTNV-1" source="Rb-lbBpFjrk857He8v0L-2" target="Rb-lbBpFjrk857He8v0L-3">
          <mxGeometry relative="1" as="geometry" />
        </mxCell>
        <mxCell id="Rb-lbBpFjrk857He8v0L-2" value="harga, jumlah, &lt;br&gt;diskon" style="shape=parallelogram;perimeter=parallelogramPerimeter;whiteSpace=wrap;html=1;fixedSize=1;" vertex="1" parent="WIyWlLk6GJQsqaUBKTNV-1">
          <mxGeometry x="280" y="340" width="120" height="60" as="geometry" />
        </mxCell>
        <mxCell id="Rb-lbBpFjrk857He8v0L-9" value="" style="edgeStyle=orthogonalEdgeStyle;rounded=0;orthogonalLoop=1;jettySize=auto;html=1;" edge="1" parent="WIyWlLk6GJQsqaUBKTNV-1" source="Rb-lbBpFjrk857He8v0L-3" target="Rb-lbBpFjrk857He8v0L-4">
          <mxGeometry relative="1" as="geometry" />
        </mxCell>
        <mxCell id="Rb-lbBpFjrk857He8v0L-3" value="Total= harga*jumlah&lt;br&gt;jmlDis=total*dis&lt;br&gt;bayar=total-jmlDis" style="rounded=0;whiteSpace=wrap;html=1;" vertex="1" parent="WIyWlLk6GJQsqaUBKTNV-1">
          <mxGeometry x="280" y="460" width="120" height="60" as="geometry" />
        </mxCell>
        <mxCell id="Rb-lbBpFjrk857He8v0L-10" value="" style="edgeStyle=orthogonalEdgeStyle;rounded=0;orthogonalLoop=1;jettySize=auto;html=1;" edge="1" parent="WIyWlLk6GJQsqaUBKTNV-1" source="Rb-lbBpFjrk857He8v0L-4" target="Rb-lbBpFjrk857He8v0L-5">
          <mxGeometry relative="1" as="geometry" />
        </mxCell>
        <mxCell id="Rb-lbBpFjrk857He8v0L-4" value="jmlDis&lt;br&gt;bayar" style="shape=parallelogram;perimeter=parallelogramPerimeter;whiteSpace=wrap;html=1;fixedSize=1;" vertex="1" parent="WIyWlLk6GJQsqaUBKTNV-1">
          <mxGeometry x="280" y="555" width="120" height="60" as="geometry" />
        </mxCell>
        <mxCell id="Rb-lbBpFjrk857He8v0L-5" value="selesai" style="ellipse;whiteSpace=wrap;html=1;" vertex="1" parent="WIyWlLk6GJQsqaUBKTNV-1">
          <mxGeometry x="280" y="640" width="120" height="80" as="geometry" />
        </mxCell>
      </root>
    </mxGraphModel>
  </diagram>
</mxfile>
